<?xml version="1.0" encoding="utf-8"?>
<!-- Generator: Adobe Illustrator 23.0.1, SVG Export Plug-In . SVG Version: 6.00 Build 0)  -->
<svg version="1.1" id="Layer_1" xmlns="http://www.w3.org/2000/svg" xmlns:xlink="http://www.w3.org/1999/xlink" x="0px" y="0px"
	 viewBox="0 0 512 512" style="enable-background:new 0 0 512 512;" xml:space="preserve">
<style type="text/css">
	.st0{fill:#FF0037;}
	.st1{fill:#007EFC;}
	.st2{fill:#0080FF;}
	.st3{fill:#FFCE00;}
	.st4{fill:#FFFFFF;}
</style>
<path class="st0" d="M211.1,154c0,0-7.4-97,3.3-144.8c0.6-2.9-1.9-5.5-4.8-5c-72,13.2-133.5,56.4-170.9,116.3
	c-1.9,3,0.7,6.9,4.2,6.3C79.9,120.6,150.6,115.9,211.1,154z"/>
<g>
	<path class="st1" d="M0,256c0,56.2,18.1,108.1,48.8,150.3c5.2,7.2,16.2,6.5,20.5-1.3l141.9-259.9c0,0-88.4-57.6-171.7-25.7
		C14.5,159,0,205.8,0,256z"/>
	<path class="st2" d="M386.6,142.9c45.6-0.6,65.2-57.9,29.7-86.5C372.4,21.1,316.7,0,256,0c-18.6,0-36.8,2-54.2,5.8
		c-6.2,70.5,9.4,139.3,9.4,139.3L386.6,142.9z"/>
</g>
<g>
	<path class="st3" d="M312.9,450.9L305.2,346l-92.5-200.9c0,0-167.3,18-166.7,255.1c0,0,0.4,1.4,1.2,4C93.6,469.4,169.8,512,256,512
		c0.2,0,0.4,0,0.6,0C289.5,511.9,315.3,483.7,312.9,450.9z"/>
	<path class="st3" d="M512,256c0-81.3-37.9-153.7-96.9-200.6c-161.2-19.2-203.9,89.7-203.9,89.7l258.2,204.3
		c9.7,7.6,23.9,3.5,28-8.1C506.9,314.6,512,285.9,512,256z"/>
</g>
<path class="st0" d="M499,336.8c-6.3-20.4-61.1-174.3-286.4-191.7c0,0-85.8,185.2,44.9,366.9C369.9,511.4,465.3,438.2,499,336.8z"/>
<ellipse transform="matrix(0.8339 -0.552 0.552 0.8339 -45.0189 140.6668)" class="st4" cx="211.2" cy="145.1" rx="52.4" ry="46.1"/>
</svg>
