<?xml version="1.0" encoding="utf-8"?>
<!-- Generator: Adobe Illustrator 23.0.1, SVG Export Plug-In . SVG Version: 6.00 Build 0)  -->
<svg version="1.1" id="Capa_1" xmlns="http://www.w3.org/2000/svg" xmlns:xlink="http://www.w3.org/1999/xlink" x="0px" y="0px"
	 viewBox="0 0 512 512" style="enable-background:new 0 0 512 512;" xml:space="preserve">
<style type="text/css">
	.st0{fill:#FFD93B;}
	.st1{fill:#E24B4B;}
	.st2{fill:#E9EFF4;}
</style>
<g>
	<path class="st0" d="M298.3,120.4c-0.1,0-0.1,0-0.2,0l0.1-14.9l0,0c8.1,0,18.5-15.1,26.2-26.1c2.4-3.5,4.8-6.9,7.1-10
		c21.8-28.9,51-49.1,69.8-48.3c6.5,0.3,11.8,3.2,14.8,8.2l-12.7,7.8c-0.2-0.3-0.6-1-2.9-1.1c-11.5-0.5-36.8,15.5-57.1,42.4
		c-2.2,2.9-4.4,6.1-6.7,9.5C326.2,103.2,314.2,120.4,298.3,120.4z"/>
	<path class="st0" d="M186.5,208.2c-7.4-9.6-17.9-16.6-28.9-24.1c-10.2-6.9-20.8-14-29.3-23.6c-22.9-25.7-26.7-67.5-9.2-101.6
		l13.3,6.8c-14.7,28.7-11.8,63.6,7.1,84.8c7.3,8.2,16.6,14.4,26.5,21.1c11.5,7.8,23.5,15.8,32.4,27.3L186.5,208.2z"/>
	<path class="st0" d="M435.8,282c-10.2-20-22.9-33.6-35.1-46.8c-19.2-20.7-35.8-38.7-39.8-77.8l-14.9,1.3c4.9,48,25.8,70.6,46,92.4
		c11.2,12.1,22.9,24.7,31.7,41.9c19,37.2,26.8,72.3,22.4,101.4c-2.8,18.9-10.8,35.3-23.2,48.4c-0.3,0.5-0.8,1-1.3,1.4
		c-0.2,0.2-0.3,0.5-0.5,0.7c-1,1.4-2.3,2.5-3.7,3.3c-2.7,2.4-5.6,4.6-8.6,6.7l6.1,14.9c1.3-0.3,2.6-0.6,3.9-1c4-1.2,6.9-3,10.2-5.5
		c0,0,0.1,0,0.1-0.1c17.1-16.3,28-37.8,31.9-63.2C466.2,365.2,457.5,324.4,435.8,282z"/>
	<path class="st0" d="M418.7,469c0.8-0.3,1.6-0.5,2.3-0.8l10.6-11.3c-20.5-1.7-36.8-7.4-54-13.6c-15.9-5.7-32.4-11.6-53.1-14.3
		c-55.7-7.3-137.7,11.6-199.4,46l16.6,8.5c52-28.9,120.4-44.9,166.4-38.9c17.7,2.3,32.2,7.5,47.6,13c14.3,5.1,29,10.3,46.7,13.3
		C407.9,471.1,413.6,470.5,418.7,469z"/>
</g>
<path class="st1" d="M278.3,4.3C172.7,4.3,87.2,89.8,87.2,195.4s85.5,191.1,191.1,191.1S469.4,301,469.4,195.4S383.9,4.3,278.3,4.3z
	 M278.3,289.1c-51.7,0-93.6-42-93.6-93.7s41.9-93.6,93.6-93.6s93.7,41.9,93.7,93.6C372.1,247.1,330.1,289.1,278.3,289.1z"/>
<g>
	<path class="st2" d="M203.2,19.6l41.6,88.4c10.4-4,21.7-6.3,33.6-6.3s23.2,2.3,33.6,6.3l41.6-88.4C330.4,9.8,305,4.3,278.3,4.3
		S226.2,9.8,203.2,19.6z"/>
	<path class="st2" d="M184.7,195.4c0-11.9,2.3-23.2,6.3-33.6l-88.4-41.6c-9.9,23.1-15.4,48.5-15.4,75.2s5.5,52.1,15.4,75.2L191,229
		C187,218.5,184.7,207.2,184.7,195.4z"/>
	<path class="st2" d="M353.5,371.1L312,282.8c-10.5,4-21.8,6.3-33.6,6.3c-11.9,0-23.2-2.3-33.7-6.3l-41.5,88.4
		c23.1,9.9,48.5,15.4,75.2,15.4C305,386.5,330.4,381,353.5,371.1z"/>
	<path class="st2" d="M372.1,195.4c0,11.9-2.3,23.2-6.3,33.6l88.3,41.5c9.9-23.1,15.4-48.5,15.4-75.2s-5.5-52.1-15.4-75.2
		l-88.4,41.5C369.7,172.2,372.1,183.5,372.1,195.4z"/>
</g>
<g>
	<path class="st0" d="M298.1,120.4c-17.3-0.1-26.8-18.9-37.9-40.5c-17.4-34.1-35.3-69.3-82.9-54.2c-18.6,5.9-35,20.5-45,40.1
		L119.1,59c11.8-23,31.4-40.3,53.7-47.5c59.7-19,83.4,27.6,100.8,61.6c8.5,16.6,16.5,32.3,24.7,32.3L298.1,120.4z"/>
	<path class="st0" d="M361,161.1l-14.9-0.3c0.8-33.2,30.8-81.4,46.6-102.2c0.8-1,1.7-2.2,2.6-3.3c4.4-5.4,10.9-13.6,8.2-18.1
		l12.7-7.8c8.2,13.4-2.7,27.1-9.3,35.2l-2.4,3C388,89.4,361.6,134,361,161.1z"/>
</g>
<path class="st0" d="M421.7,444.2c0,0-0.1,0.1-0.2,0.1c-0.1,0.2-0.3,0.4-0.5,0.6c-3,4.4-8.8,5.4-14.1,5.5
	c-8.9,0.2-17.8-3.7-26.3-6.3h-1.9v19.6H428v-19.6H421.7z"/>
</svg>
