<?xml version="1.0" encoding="utf-8"?>
<!-- Generator: Adobe Illustrator 23.0.1, SVG Export Plug-In . SVG Version: 6.00 Build 0)  -->
<svg version="1.1" id="Layer_1" xmlns="http://www.w3.org/2000/svg" xmlns:xlink="http://www.w3.org/1999/xlink" x="0px" y="0px"
	 viewBox="0 0 512 512" style="enable-background:new 0 0 512 512;" xml:space="preserve">
<style type="text/css">
	.st0{fill:#329682;}
	.st1{fill:#D24614;}
	.st2{fill:#F0915A;}
	.st3{fill:#FAB991;}
	.st4{fill:#F06423;}
	.st5{fill:#7DC8AA;}
</style>
<g>
	<g>
		<path class="st0" d="M275.6,441.3L275.6,441.3c-0.5,0-0.9-0.1-1.3-0.2c-0.1,0-0.2,0-0.4,0c-0.3,0-0.6,0-1-0.1
			c-0.3,0.1-0.6,0.1-1,0.1c-0.5,0-0.9-0.1-1.3-0.2h-15c-17.7,0-32-14.3-32-32v-32c10.5-21,16-44.2,16-67.8V297c0-8.8-7.2-16-16-16
			h-32c-35.3,0-64,28.7-64,64c0,4.4-3.6,8-8,8s-8-3.6-8-8v64c0,44.2,35.8,80,80,80h64c6.2,0,12.2-0.7,18-2.1c0-0.1,0-0.3,0-0.4
			c0-3.3,0.2-6.7,0.5-10c-0.3-1.6-0.5-3.2-0.7-4.5c-0.6-4.1-1.2-8.4-1.1-12.6C272.5,453.3,274.3,447.4,275.6,441.3z"/>
	</g>
	<g>
		<path class="st1" d="M122.3,217H95.6c-8.8,0-16-7.2-16-16V81h42.7V217z"/>
	</g>
	<g>
		<path class="st2" d="M223.6,153h-80c-17.7,0-32,14.3-32,32v160c0,4.4,3.6,8,8,8s8-3.6,8-8c0-35.3,28.7-64,64-64h32
			c0-8.8-7.2-16-16-16c10.2-10.2,16-24.1,16-38.6V153z"/>
	</g>
	<g>
		<path class="st2" d="M127.6,169h40c8.8,0,16-7.2,16-16V81c0-13.3-10.7-24-24-24h-40c-13.3,0-24,10.7-24,24v56
			C95.6,154.7,109.9,169,127.6,169z"/>
	</g>
	<g>
		<path class="st3" d="M143.6,169h-16c-17.7,0-32-14.3-32-32V81c0-13.3,10.7-24,24-24h16c13.3,0,24,10.7,24,24v72
			C159.6,161.9,152.4,169,143.6,169z"/>
	</g>
	<g>
		<path class="st2" d="M167.6,137h-8v-24c0-8.8,7.2-16,16-16h8v24C183.6,129.9,176.4,137,167.6,137z"/>
	</g>
	<g>
		<path class="st0" d="M175.6,185c-9.6,0-18.1,4.2-24,10.8c-5.9-6.6-14.4-10.8-24-10.8c-17.7,0-32,14.3-32,32s14.3,32,32,32
			c9.6,0,18.1-4.2,24-10.8c5.9,6.6,14.4,10.8,24,10.8c17.7,0,32-14.3,32-32S193.3,185,175.6,185L175.6,185z"/>
	</g>
	<g>
		<path class="st3" d="M305.2,69.2l-64-0.5c-26.5-0.2-48.2,21.1-48.4,47.6l-0.2,32c-0.1,8.8,7,16.1,15.9,16.1
			c8.8,0.1,16.1-7,16.1-15.9l0.2-32c0.1-8.8,7.3-15.9,16.1-15.9l64,0.5L305.2,69.2z"/>
	</g>
	<g>
		<path class="st2" d="M373.6,53v48h32c8.8,0,16-7.2,16-16h4c6.6,0,12-5.4,12-12c0-2.2-1.8-4-4-4h-12V53H373.6z"/>
	</g>
	<g>
		<path class="st3" d="M373.6,53v48c8.8,0,16-7.2,16-16V53h32c4.4,0,8-3.6,8-8s-3.6-8-8-8h-32C380.8,37,373.6,44.2,373.6,53z"/>
	</g>
	<g>
		<path class="st4" d="M159.6,41h-48c-17.7,0-32,14.3-32,32v8c0,4.4,3.6,8,8,8h56c0,8.8,7.2,16,16,16v96c0,8.8,7.2,16,16,16h2.7
			c8.8,0,16-7.2,16-16v-34.7c0-7.4,6-13.3,13.3-13.3V89C207.6,62.5,186.1,41,159.6,41L159.6,41z"/>
	</g>
	<g>
		<path class="st2" d="M167.6,137c-4.4,0-8-3.6-8-8v-24c0-4.4,3.6-8,8-8c8.8,0,16,7.2,16,16v8C183.6,129.9,176.4,137,167.6,137z"/>
	</g>
	<g>
		<path class="st5" d="M119.6,369c13.3,0,24-10.7,24-24c0-26.5,21.5-48,48-48h48c0-8.8-7.2-16-16-16h-32c-35.3,0-64,28.7-64,64
			c0,4.4-3.6,8-8,8s-8-3.6-8-8v-32c-8.8,0-16,7.2-16,16v16C95.6,358.3,106.3,369,119.6,369z"/>
	</g>
	<path class="st5" d="M475.6,230.4h-24c-26.5,0-48,21.5-48,48c0-26.5-21.5-48-48-48h-24c-4.4,0-8,3.6-8,8v8c0,26.5,21.5,48,48,48h64
		c26.5,0,48-21.5,48-48v-8C483.6,234,480,230.4,475.6,230.4z"/>
	<path class="st0" d="M322.5,441.6c-3.1,0.2-6.1,0.3-9.1,0.3c-7.2,0-14.7,0.5-21.9-0.3H251V489h110.6c2-0.5,4.1-0.8,6.2-0.9
		c0.2-0.1,0.4-0.1,0.5-0.2c0.5-0.2,1-0.2,1.5-0.2c2.2-0.6,4.5-1,6.8-1.1v-45L322.5,441.6L322.5,441.6z"/>
	<g>
		<path class="st0" d="M426.7,389l-2.9-76.4c-0.2-6.1-0.8-12.1-1.7-17.9c-10.9-0.1-21.7-0.2-32.6-0.2c0,0.1,0,0.2,0,0.3l0.7,19.1
			c0.1,3.3,0,6.5-0.4,9.6c0.4,6.3-1.2,12.3-2,18.6c-0.9,7.1-1.8,14.3-3,21.4c0,0.3,0,0.6-0.1,0.9c-2.2,11.4-4.6,22.7-8,33.8
			c-2.8,9.3-6.2,19.3-13,26.5c-2.3,2.4-5.1,4.3-8.2,5.8c-4.8,3.2-9.8,5.7-15.6,7.6c-1.8,0.6-3.6,1-5.4,1.4
			c-6.8,2.1-14.4,2.5-21.2,2.5c-6.8,0-13.7,0.4-20.5-0.2c8.8,17.3,21.9,28,36,27.5c3.1-0.1,5.7,4.1,5.9,9.3s-2.1,9.6-5.2,9.8
			l44.7-1.7C405.3,485.5,428.7,441.8,426.7,389z"/>
	</g>
	<rect x="303.6" y="69.2" class="st3" width="70.2" height="31.8"/>
</g>
</svg>
