<?xml version="1.0" encoding="utf-8"?>
<!-- Generator: Adobe Illustrator 23.0.1, SVG Export Plug-In . SVG Version: 6.00 Build 0)  -->
<svg version="1.1" id="Layer_1" xmlns="http://www.w3.org/2000/svg" xmlns:xlink="http://www.w3.org/1999/xlink" x="0px" y="0px"
	 viewBox="0 0 512 512" style="enable-background:new 0 0 512 512;" xml:space="preserve">
<style type="text/css">
	.st0{fill:#FFD41D;}
	.st1{fill:#FFA91F;}
	.st2{fill:#4D4D4D;}
	.st3{fill:#E2901A;}
</style>
<path class="st0" d="M200.7,150.6H342V113h-40.5c-10.1,0-18.2-7.8-18.2-17.3c0-26.4-11.2-50.3-29.4-67.6s-43.3-28-71-28h-47.2
	c-29.4,0-53.2,22.7-53.2,50.7v182l-70.8-22.3v146.7l70.8-22.3v62.3c0,63.4,54,114.9,120.6,114.9h17.3c36.7,0,68.2-20.7,82.6-50.5
	c-10.2,0.8-20.5,1.3-30.6,0.7c-5.8-0.4-11.5-1.3-17.2-2.1c-4.7,0.5-9.4,0.1-14.1,0.3c-2.4,0.1-4.7,0-6.9-0.4c-0.3,0-0.7-0.1-1-0.2
	c-0.4,0.1-0.9,0.2-1.3,0.2c-0.4,0-0.8,0-1.2-0.1c-2.1,0.3-4.3,0.5-6.6,0.5c-15.4,0-29.4-6-39.6-15.6c-10.1-9.6-16.4-23-16.4-37.7
	v-26.1c0-31.9,17.2-61.8,46-78.1c7-4,13.5-8.5,19.6-13.5c10.6-8.7,17.3-19.4,20.5-30.6c1.5-5.4,2.3-11,2.2-16.5
	c-0.1-10.6-3-21.1-8.3-30.4c-2.8-4.9-6.3-9.4-10.4-13.4c-9.8-9.6-23.1-16.3-39.2-18.1c-7.9-0.9-13.9-7.2-13.9-14.8
	c0-0.2,0-0.4,0-0.6C184.9,156.8,192.2,150.6,200.7,150.6z"/>
<path class="st0" d="M254.8,460.1c-4.5,0.4-9.1,0.1-13.7,0.3c-2.2,0.1-4.3,0.1-6.3-0.3h-16.3V512h206.9v-51.9H254.8z"/>
<polygon class="st1" points="79.1,232.7 79.1,334.8 11.8,357.1 11.8,210.4 "/>
<path class="st2" d="M195.9,96.5c-7.1,0-13.7-4.6-16.2-11.3c-2.5-6.7-0.4-14.6,5.1-19.2c5.6-4.7,13.7-5.3,19.9-1.6
	c6.2,3.7,9.5,11.1,8,18.2C211.3,90.5,204.1,96.5,195.9,96.5z"/>
<g>
	<path class="st3" d="M63.3,253.9c-0.7,3.8-4,6.4-7.7,6.4c-0.5,0-1,0-1.4-0.1l-42.4-7.9v-15.9l45.3,8.4
		C61.3,245.5,64.1,249.6,63.3,253.9z"/>
	<path class="st3" d="M57.1,319.7l-45.3,8.4v-15.9l42.4-7.9c4.3-0.8,8.3,2,9.1,6.3C64.1,314.8,61.3,318.9,57.1,319.7z"/>
	<path class="st3" d="M46.6,282.2c0,4.3-3.5,7.8-7.8,7.8h-27v-15.7h27C43.1,274.4,46.6,277.9,46.6,282.2z"/>
</g>
<polygon class="st1" points="100.5,114.2 46.2,127.8 46.2,42.1 99.5,58.8 "/>
<g>
	<path class="st3" d="M81,78c-0.7,3.8-4,6.4-7.7,6.4c-0.5,0-1,0-1.5-0.1l-25.7-4.9V63.5c0.5,0,1,0.1,1.5,0.1l27.2,5.2
		C79.1,69.7,81.9,73.8,81,78z"/>
	<path class="st3" d="M74.8,107.9l-27.2,5.2c-0.5,0.1-1,0.1-1.5,0.1V97.5l25.7-4.9c4.3-0.8,8.4,2,9.2,6.2
		C81.9,103,79.1,107.1,74.8,107.9z"/>
</g>
<ellipse class="st0" cx="425.4" cy="487.8" rx="23" ry="27.7"/>
<path class="st0" d="M264.2,112.9c-4.9,0.3-9.9,0-14.8,0.2c-2.4,0.1-4.6,0-6.8-0.2H225v37.6h223.4v-37.6H264.2z"/>
</svg>
