<?xml version="1.0" encoding="iso-8859-1"?>
<!-- Generator: Adobe Illustrator 19.0.0, SVG Export Plug-In . SVG Version: 6.00 Build 0)  -->
<svg version="1.1" id="Layer_1" xmlns="http://www.w3.org/2000/svg" xmlns:xlink="http://www.w3.org/1999/xlink" x="0px" y="0px"
	 viewBox="0 0 511.999 511.999" style="enable-background:new 0 0 511.999 511.999;" xml:space="preserve">
<path style="fill:#DD314B;" d="M286.636,30.033l25.492,110.413c7.244,31.373,37.426,51.9,69.296,47.127l101.285-15.169
	c28.023,4.07,39.213,38.487,18.935,58.241l-88.415,58.842c-23.901,15.907-33.665,46.181-23.554,73.037l37.076,98.483
	c4.787,27.893-24.508,49.164-49.572,35.995l-80.601-70.259c-23.25-20.266-57.907-20.266-81.157,0l-80.601,70.259
	c-25.065,13.169-54.359-8.102-49.572-35.995l37.059-98.495c10.103-26.851,0.341-57.117-23.553-73.022l-88.399-58.844
	c-20.278-19.754-9.088-54.171,18.935-58.241l101.256,15.188c31.873,4.781,62.062-15.743,69.309-47.119l25.508-110.44
	C237.894,4.654,274.104,4.654,286.636,30.033z"/>
<path style="fill:#F24E5E;" d="M393.081,475.153c-0.637,0-1.268-0.083-1.904-0.251l-77.592-67.635
	c-15.958-13.91-36.409-21.57-57.586-21.57s-41.628,7.66-57.586,21.57l-77.592,67.635c-0.637,0.168-1.269,0.251-1.907,0.251
	c-2.353,0-4.829-1.203-6.463-3.139c-1.227-1.454-1.84-3.079-1.853-4.931l35.923-95.476c14.416-38.317,0.672-80.93-33.424-103.626
	l-85.765-57.092c-1.998-2.786-1.537-5.671-1.019-7.264c0.466-1.432,1.585-3.685,4.178-4.905l96.213,14.432
	c4.319,0.647,8.713,0.976,13.061,0.976c40.994,0.002,76.069-27.896,85.297-67.844l24.613-106.561
	c2.009-2.462,4.722-2.878,6.325-2.878c1.603,0,4.316,0.416,6.325,2.877l24.597,106.532c9.224,39.95,44.298,67.851,85.294,67.851
	c4.342,0,8.731-0.327,13.045-0.974l96.246-14.413c2.593,1.22,3.713,3.473,4.179,4.906c0.518,1.593,0.979,4.478-1.019,7.263
	l-85.779,57.087c-34.109,22.702-47.855,65.322-33.425,103.646l35.938,95.461c-0.014,1.85-0.626,3.474-1.853,4.927
	C397.913,473.949,395.435,475.153,393.081,475.153z"/>
<path style="fill:#FF9C4A;" d="M333.782,251.269c-1.279-3.94-5.514-6.092-9.449-4.818l-60.834,19.747v-63.899
	c0-4.143-3.357-7.5-7.5-7.5s-7.5,3.357-7.5,7.5v63.899l-60.834-19.748c-3.941-1.28-8.17,0.878-9.449,4.818
	c-1.278,3.939,0.878,8.17,4.818,9.449l60.823,19.745l-37.588,51.688c-2.437,3.35-1.695,8.041,1.654,10.477
	c1.332,0.969,2.875,1.436,4.405,1.436c2.317,0,4.604-1.072,6.071-3.09l37.6-51.703l37.599,51.702c1.468,2.019,3.754,3.09,6.071,3.09
	c1.53,0,3.073-0.467,4.405-1.436c3.35-2.436,4.091-7.127,1.654-10.477l-37.588-51.688l60.823-19.745
	C332.904,259.438,335.061,255.208,333.782,251.269z"/>
<g>
</g>
<g>
</g>
<g>
</g>
<g>
</g>
<g>
</g>
<g>
</g>
<g>
</g>
<g>
</g>
<g>
</g>
<g>
</g>
<g>
</g>
<g>
</g>
<g>
</g>
<g>
</g>
<g>
</g>
</svg>
