<?xml version="1.0" encoding="utf-8"?>
<!-- Generator: Adobe Illustrator 23.0.1, SVG Export Plug-In . SVG Version: 6.00 Build 0)  -->
<svg version="1.1" id="Capa_1" xmlns="http://www.w3.org/2000/svg" xmlns:xlink="http://www.w3.org/1999/xlink" x="0px" y="0px"
	 viewBox="0 0 512 512" style="enable-background:new 0 0 512 512;" xml:space="preserve">
<style type="text/css">
	.st0{fill:#FFDB2D;}
	.st1{fill:#99EFF3;}
</style>
<path class="st0" d="M507.4,14.8L505,7l-7.8-2.3c-1.5-0.4-36.2-10.4-90.7,0.3c-31.4,6.1-63.3,17.9-94.7,34.9
	c-38.9,21.1-77.2,50.4-113.9,87.1C118.7,206.1,70.2,284.9,43.5,337c-29.2,56.8-39.4,94.7-39.8,96.3L0,446.9l48.8,16.3L65.1,512
	l13.6-3.6c1.6-0.4,39.4-10.7,96.3-39.8c52.1-26.7,130.8-75.2,210-154.4c36.7-36.7,66-75,87.1-113.9c17-31.4,28.8-63.3,34.9-94.7
	C517.8,50.9,507.8,16.2,507.4,14.8z"/>
<path class="st1" d="M125.5,209c-7.9,10.2-15.3,20.2-22.3,30H273v169.8c9.8-6.9,19.8-14.4,30-22.3V209L125.5,209L125.5,209z"/>
<path class="st1" d="M72,286.3c-6.4,10.5-12.3,20.6-17.5,30h141.2v141.2c9.4-5.2,19.5-11,30-17.5V286.3H72z"/>
<path class="st1" d="M428.8,104.4l80.6-80.6c-1-5.5-1.9-8.7-2-9.1L505,7l-7.8-2.3c-0.4-0.1-3.6-1-9.1-2l-80.6,80.6L428.8,104.4z"/>
</svg>
